<?xml version="1.0" standalone="no"?>
<!DOCTYPE svg PUBLIC "-//W3C//DTD SVG 1.1//EN"
  "http://www.w3.org/Graphics/SVG/1.1/DTD/svg11.dtd">
<!-- Created with matplotlib (http://matplotlib.sourceforge.net/) -->
<svg width="576pt" height="432pt" viewBox="0 0 576 432"
   xmlns="http://www.w3.org/2000/svg"
   xmlns:xlink="http://www.w3.org/1999/xlink"
   version="1.1"
   id="svg1">
<g id="figure1">
<g id="patch1">
<path style="fill: #ffffff; stroke: #ffffff; stroke-width: 1.000000; stroke-linejoin: round; stroke-linecap: square;  opacity: 1.000000"  d="M0.000000 432.000000L576.000000 432.000000L576.000000 0.000000
L0.000000 0.000000L0.000000 432.000000"/>
</g>
<g id="axes1">
<g id="patch2">
<path style="fill: #ffffff; opacity: 1.000000"  d="M72.000000 388.800000L518.400000 388.800000L518.400000 43.200000
L72.000000 43.200000L72.000000 388.800000"/>
</g>
<g id="line2d1">
<defs>
  <clipPath id="p50431ccdcb28178602d99d9270004dde">
<rect x="72.000000" y="43.200000" width="446.400000" height="345.600000"/>
  </clipPath>
</defs><path style="fill: none; stroke: #0000ff; stroke-width: 1.000000; stroke-linejoin: round; stroke-linecap: square;  opacity: 1.000000" clip-path="url(#p50431ccdcb28178602d99d9270004dde)" d="M72.000000 350.784000L76.960000 347.328000L81.920000 343.872000
L86.880000 340.416000L91.840000 336.960000L96.800000 333.504000
L101.760000 330.048000L106.720000 326.592000L111.680000 323.136000
L116.640000 319.680000L121.600000 316.224000L126.560000 312.768000
L131.520000 309.312000L136.480000 305.856000L141.440000 302.400000
L146.400000 298.944000L151.360000 295.488000L156.320000 292.032000
L161.280000 288.576000L166.240000 285.120000L171.200000 281.664000
L176.160000 278.208000L181.120000 274.752000L186.080000 271.296000
L191.040000 267.840000L196.000000 264.384000L200.960000 260.928000
L205.920000 257.472000L210.880000 254.016000L215.840000 250.560000
L220.800000 247.104000L225.760000 243.648000L230.720000 240.192000
L235.680000 236.736000L240.640000 233.280000L245.600000 229.824000
L250.560000 226.368000L255.520000 222.912000L260.480000 219.456000
L265.440000 216.000000L270.400000 212.544000L275.360000 209.088000
L280.320000 205.632000L285.280000 202.176000L290.240000 198.720000
L295.200000 195.264000L300.160000 191.808000L305.120000 188.352000
L310.080000 184.896000L315.040000 181.440000L320.000000 177.984000
L324.960000 174.528000L329.920000 171.072000L334.880000 167.616000
L339.840000 164.160000L344.800000 160.704000L349.760000 157.248000
L354.720000 153.792000L359.680000 150.336000L364.640000 146.880000
L369.600000 143.424000L374.560000 139.968000L379.520000 136.512000
L384.480000 133.056000L389.440000 129.600000L394.400000 126.144000
L399.360000 122.688000L404.320000 119.232000L409.280000 115.776000
L414.240000 112.320000L419.200000 108.864000L424.160000 105.408000
L429.120000 101.952000L434.080000 98.496000L439.040000 95.040000
L444.000000 91.584000L448.960000 88.128000L453.920000 84.672000
L458.880000 81.216000L463.840000 77.760000L468.800000 74.304000
L473.760000 70.848000L478.720000 67.392000L483.680000 63.936000
L488.640000 60.480000L493.600000 57.024000L498.560000 53.568000
L503.520000 50.112000L508.480000 46.656000L513.440000 43.200000"/>
</g>
<g id="line2d2">
<path style="fill: none; stroke: #008000; stroke-width: 1.000000; stroke-linejoin: round; stroke-linecap: square;  opacity: 1.000000" clip-path="url(#p50431ccdcb28178602d99d9270004dde)" d="M72.000000 354.240000L76.960000 350.784000L81.920000 347.328000
L86.880000 343.872000L91.840000 340.416000L96.800000 336.960000
L101.760000 333.504000L106.720000 330.048000L111.680000 326.592000
L116.640000 323.136000L121.600000 319.680000L126.560000 316.224000
L131.520000 312.768000L136.480000 309.312000L141.440000 305.856000
L146.400000 302.400000L151.360000 298.944000L156.320000 295.488000
L161.280000 292.032000L166.240000 288.576000L171.200000 285.120000
L176.160000 281.664000L181.120000 278.208000L186.080000 274.752000
L191.040000 271.296000L196.000000 267.840000L200.960000 264.384000
L205.920000 260.928000L210.880000 257.472000L215.840000 254.016000
L220.800000 250.560000L225.760000 247.104000L230.720000 243.648000
L235.680000 240.192000L240.640000 236.736000L245.600000 233.280000
L250.560000 229.824000L255.520000 226.368000L260.480000 222.912000
L265.440000 219.456000L270.400000 216.000000L275.360000 212.544000
L280.320000 209.088000L285.280000 205.632000L290.240000 202.176000
L295.200000 198.720000L300.160000 195.264000L305.120000 191.808000
L310.080000 188.352000L315.040000 184.896000L320.000000 181.440000
L324.960000 177.984000L329.920000 174.528000L334.880000 171.072000
L339.840000 167.616000L344.800000 164.160000L349.760000 160.704000
L354.720000 157.248000L359.680000 153.792000L364.640000 150.336000
L369.600000 146.880000L374.560000 143.424000L379.520000 139.968000
L384.480000 136.512000L389.440000 133.056000L394.400000 129.600000
L399.360000 126.144000L404.320000 122.688000L409.280000 119.232000
L414.240000 115.776000L419.200000 112.320000L424.160000 108.864000
L429.120000 105.408000L434.080000 101.952000L439.040000 98.496000
L444.000000 95.040000L448.960000 91.584000L453.920000 88.128000
L458.880000 84.672000L463.840000 81.216000L468.800000 77.760000
L473.760000 74.304000L478.720000 70.848000L483.680000 67.392000
L488.640000 63.936000L493.600000 60.480000L498.560000 57.024000
L503.520000 53.568000L508.480000 50.112000L513.440000 46.656000"/>
</g>
<g id="line2d3">
<path style="fill: none; stroke: #ff0000; stroke-width: 1.000000; stroke-linejoin: round; stroke-linecap: square;  opacity: 1.000000" clip-path="url(#p50431ccdcb28178602d99d9270004dde)" d="M72.000000 354.240000L76.960000 350.784000L81.920000 347.328000
L86.880000 343.872000L91.840000 340.416000L96.800000 336.960000
L101.760000 333.504000L106.720000 330.048000L111.680000 326.592000
L116.640000 323.136000L121.600000 319.680000L126.560000 316.224000
L131.520000 312.768000L136.480000 309.312000L141.440000 305.856000
L146.400000 302.400000L151.360000 298.944000L156.320000 295.488000
L161.280000 292.032000L166.240000 288.576000L171.200000 285.120000
L176.160000 281.664000L181.120000 278.208000L186.080000 274.752000
L191.040000 271.296000L196.000000 267.840000L200.960000 264.384000
L205.920000 260.928000L210.880000 257.472000L215.840000 254.016000
L220.800000 250.560000L225.760000 247.104000L230.720000 243.648000
L235.680000 240.192000L240.640000 236.736000L245.600000 233.280000
L250.560000 229.824000L255.520000 226.368000L260.480000 222.912000
L265.440000 219.456000L270.400000 216.000000L275.360000 212.544000
L280.320000 209.088000L285.280000 205.632000L290.240000 202.176000
L295.200000 198.720000L300.160000 195.264000L305.120000 191.808000
L310.080000 188.352000L315.040000 184.896000L320.000000 181.440000
L324.960000 177.984000L329.920000 174.528000L334.880000 171.072000
L339.840000 167.616000L344.800000 164.160000L349.760000 160.704000
L354.720000 157.248000L359.680000 153.792000L364.640000 150.336000
L369.600000 146.880000L374.560000 143.424000L379.520000 139.968000
L384.480000 136.512000L389.440000 133.056000L394.400000 129.600000
L399.360000 126.144000L404.320000 122.688000L409.280000 119.232000
L414.240000 115.776000L419.200000 112.320000L424.160000 108.864000
L429.120000 105.408000L434.080000 101.952000L439.040000 98.496000
L444.000000 95.040000L448.960000 91.584000L453.920000 88.128000
L458.880000 84.672000L463.840000 81.216000L468.800000 77.760000
L473.760000 74.304000L478.720000 70.848000L483.680000 67.392000
L488.640000 63.936000L493.600000 60.480000L498.560000 57.024000
L503.520000 53.568000L508.480000 50.112000L513.440000 46.656000"/>
</g>
<g id="line2d4">
<path style="fill: none; stroke: #00bfbf; stroke-width: 1.000000; stroke-linejoin: round; stroke-linecap: square;  opacity: 1.000000" clip-path="url(#p50431ccdcb28178602d99d9270004dde)" d="M72.000000 350.784000L76.960000 385.344000L81.920000 343.872000
L86.880000 385.344000L91.840000 385.344000L96.800000 333.504000
L101.760000 330.048000L106.720000 385.344000L111.680000 385.344000
L116.640000 385.344000L121.600000 385.344000L126.560000 385.344000
L131.520000 385.344000L136.480000 305.856000L141.440000 385.344000
L146.400000 298.944000L151.360000 295.488000L156.320000 385.344000
L161.280000 385.344000L166.240000 285.120000L171.200000 385.344000
L176.160000 278.208000L181.120000 385.344000L186.080000 271.296000
L191.040000 267.840000L196.000000 264.384000L200.960000 385.344000
L205.920000 385.344000L210.880000 385.344000L215.840000 385.344000
L220.800000 385.344000L225.760000 385.344000L230.720000 385.344000
L235.680000 385.344000L240.640000 385.344000L245.600000 385.344000
L250.560000 385.344000L255.520000 385.344000L260.480000 385.344000
L265.440000 385.344000L270.400000 385.344000L275.360000 385.344000
L280.320000 385.344000L285.280000 385.344000L290.240000 385.344000
L295.200000 385.344000L300.160000 385.344000L305.120000 385.344000
L310.080000 385.344000L315.040000 385.344000L320.000000 385.344000
L324.960000 385.344000L329.920000 385.344000L334.880000 385.344000
L339.840000 385.344000L344.800000 385.344000L349.760000 385.344000
L354.720000 385.344000L359.680000 385.344000L364.640000 385.344000
L369.600000 385.344000L374.560000 385.344000L379.520000 385.344000
L384.480000 385.344000L389.440000 385.344000L394.400000 385.344000
L399.360000 385.344000L404.320000 385.344000L409.280000 385.344000
L414.240000 385.344000L419.200000 108.864000L424.160000 385.344000
L429.120000 385.344000L434.080000 385.344000L439.040000 385.344000
L444.000000 385.344000L448.960000 385.344000L453.920000 385.344000
L458.880000 385.344000L463.840000 385.344000L468.800000 385.344000
L473.760000 385.344000L478.720000 385.344000L483.680000 385.344000
L488.640000 385.344000L493.600000 57.024000L498.560000 385.344000
L503.520000 385.344000L508.480000 385.344000L513.440000 385.344000"/>
</g>
<g id="matplotlib.axis1">
<g id="xtick1">
<g id="line2d5">
<defs><path id="m30e32995789d870ad79a2e54c91cf9c6" d="M0.000000 0.000000L0.000000 -4.000000"/></defs>
<g ><use style="fill: none; stroke: #000000; stroke-width: 0.500000; stroke-linejoin: round; stroke-linecap: butt;  opacity: 1.000000" xlink:href="#m30e32995789d870ad79a2e54c91cf9c6" x="72.000000" y="388.800000"/>
</g></g>
<g id="line2d6">
<defs><path id="m9281cae24120827b11d5ea8a7ad3e96b" d="M0.000000 0.000000L0.000000 4.000000"/></defs>
<g ><use style="fill: none; stroke: #000000; stroke-width: 0.500000; stroke-linejoin: round; stroke-linecap: butt;  opacity: 1.000000" xlink:href="#m9281cae24120827b11d5ea8a7ad3e96b" x="72.000000" y="43.200000"/>
</g></g>
<g id="text1">
<defs>
<path id="c_42baa63129a918535c52adb20d687ea7" d="M12.406250 -8.296875l16.109375 0.000000l0.000000 -55.625000l-17.531250 3.515625l0.000000 -8.984375l17.437500 -3.515625l9.859375 0.000000l0.000000 64.609375l16.109375 0.000000l0.000000 8.296875l-41.984375 0.000000z"/>
<path id="c_7a2040fe3b94fcd41d0a72c84e93b115" d="M31.781250 -66.406250q-7.609375 0.000000 -11.453125 7.500000q-3.828125 7.484375 -3.828125 22.531250q0.000000 14.984375 3.828125 22.484375q3.843750 7.500000 11.453125 7.500000q7.671875 0.000000 11.500000 -7.500000q3.843750 -7.500000 3.843750 -22.484375q0.000000 -15.046875 -3.843750 -22.531250q-3.828125 -7.500000 -11.500000 -7.500000M31.781250 -74.218750q12.265625 0.000000 18.734375 9.703125q6.468750 9.687500 6.468750 28.140625q0.000000 18.406250 -6.468750 28.109375q-6.468750 9.687500 -18.734375 9.687500q-12.250000 0.000000 -18.718750 -9.687500q-6.468750 -9.703125 -6.468750 -28.109375q0.000000 -18.453125 6.468750 -28.140625q6.468750 -9.703125 18.718750 -9.703125"/>
</defs>
<g style="fill: #000000; opacity: 1.000000" transform="translate(65.414062,401.706250)scale(0.120000)">
<use xlink:href="#c_42baa63129a918535c52adb20d687ea7"/>
<use xlink:href="#c_7a2040fe3b94fcd41d0a72c84e93b115" x="63.623047"/>
</g>
</g>
</g>
<g id="xtick2">
<g id="line2d7">
<g ><use style="fill: none; stroke: #000000; stroke-width: 0.500000; stroke-linejoin: round; stroke-linecap: butt;  opacity: 1.000000" xlink:href="#m30e32995789d870ad79a2e54c91cf9c6" x="121.600000" y="388.800000"/>
</g></g>
<g id="line2d8">
<g ><use style="fill: none; stroke: #000000; stroke-width: 0.500000; stroke-linejoin: round; stroke-linecap: butt;  opacity: 1.000000" xlink:href="#m9281cae24120827b11d5ea8a7ad3e96b" x="121.600000" y="43.200000"/>
</g></g>
<g id="text2">
<defs>
<path id="c_ed3f3ed3ebfbd18bcb9c012009a68ad1" d="M19.187500 -8.296875l34.421875 0.000000l0.000000 8.296875l-46.281250 0.000000l0.000000 -8.296875q5.609375 -5.812500 15.296875 -15.593750q9.703125 -9.796875 12.187500 -12.640625q4.734375 -5.312500 6.609375 -9.000000q1.890625 -3.687500 1.890625 -7.250000q0.000000 -5.812500 -4.078125 -9.468750q-4.078125 -3.671875 -10.625000 -3.671875q-4.640625 0.000000 -9.796875 1.609375q-5.140625 1.609375 -11.000000 4.890625l0.000000 -9.968750q5.953125 -2.390625 11.125000 -3.609375q5.187500 -1.218750 9.484375 -1.218750q11.328125 0.000000 18.062500 5.671875q6.734375 5.656250 6.734375 15.125000q0.000000 4.500000 -1.687500 8.531250q-1.671875 4.015625 -6.125000 9.484375q-1.218750 1.421875 -7.765625 8.187500q-6.531250 6.765625 -18.453125 18.921875"/>
</defs>
<g style="fill: #000000; opacity: 1.000000" transform="translate(114.795312,401.706250)scale(0.120000)">
<use xlink:href="#c_ed3f3ed3ebfbd18bcb9c012009a68ad1"/>
<use xlink:href="#c_7a2040fe3b94fcd41d0a72c84e93b115" x="63.623047"/>
</g>
</g>
</g>
<g id="xtick3">
<g id="line2d9">
<g ><use style="fill: none; stroke: #000000; stroke-width: 0.500000; stroke-linejoin: round; stroke-linecap: butt;  opacity: 1.000000" xlink:href="#m30e32995789d870ad79a2e54c91cf9c6" x="171.200000" y="388.800000"/>
</g></g>
<g id="line2d10">
<g ><use style="fill: none; stroke: #000000; stroke-width: 0.500000; stroke-linejoin: round; stroke-linecap: butt;  opacity: 1.000000" xlink:href="#m9281cae24120827b11d5ea8a7ad3e96b" x="171.200000" y="43.200000"/>
</g></g>
<g id="text3">
<defs>
<path id="c_3dcfa38a02242cb63ec6726c6e70be7a" d="M40.578125 -39.312500q7.078125 1.515625 11.046875 6.312500q3.984375 4.781250 3.984375 11.812500q0.000000 10.781250 -7.421875 16.703125q-7.421875 5.906250 -21.093750 5.906250q-4.578125 0.000000 -9.437500 -0.906250q-4.859375 -0.906250 -10.031250 -2.718750l0.000000 -9.515625q4.093750 2.390625 8.968750 3.609375q4.890625 1.218750 10.218750 1.218750q9.265625 0.000000 14.125000 -3.656250q4.859375 -3.656250 4.859375 -10.640625q0.000000 -6.453125 -4.515625 -10.078125q-4.515625 -3.640625 -12.562500 -3.640625l-8.500000 0.000000l0.000000 -8.109375l8.890625 0.000000q7.265625 0.000000 11.125000 -2.906250q3.859375 -2.906250 3.859375 -8.375000q0.000000 -5.609375 -3.984375 -8.609375q-3.968750 -3.015625 -11.390625 -3.015625q-4.062500 0.000000 -8.703125 0.890625q-4.640625 0.875000 -10.203125 2.718750l0.000000 -8.781250q5.625000 -1.562500 10.531250 -2.343750q4.906250 -0.781250 9.250000 -0.781250q11.234375 0.000000 17.765625 5.109375q6.546875 5.093750 6.546875 13.781250q0.000000 6.062500 -3.468750 10.234375q-3.468750 4.171875 -9.859375 5.781250"/>
</defs>
<g style="fill: #000000; opacity: 1.000000" transform="translate(164.418750,401.706250)scale(0.120000)">
<use xlink:href="#c_3dcfa38a02242cb63ec6726c6e70be7a"/>
<use xlink:href="#c_7a2040fe3b94fcd41d0a72c84e93b115" x="63.623047"/>
</g>
</g>
</g>
<g id="xtick4">
<g id="line2d11">
<g ><use style="fill: none; stroke: #000000; stroke-width: 0.500000; stroke-linejoin: round; stroke-linecap: butt;  opacity: 1.000000" xlink:href="#m30e32995789d870ad79a2e54c91cf9c6" x="220.800000" y="388.800000"/>
</g></g>
<g id="line2d12">
<g ><use style="fill: none; stroke: #000000; stroke-width: 0.500000; stroke-linejoin: round; stroke-linecap: butt;  opacity: 1.000000" xlink:href="#m9281cae24120827b11d5ea8a7ad3e96b" x="220.800000" y="43.200000"/>
</g></g>
<g id="text4">
<defs>
<path id="c_a0416418d96557a09b8c1332d34883ba" d="M37.796875 -64.312500l-24.906250 38.921875l24.906250 0.000000zM35.203125 -72.906250l12.406250 0.000000l0.000000 47.515625l10.406250 0.000000l0.000000 8.203125l-10.406250 0.000000l0.000000 17.187500l-9.812500 0.000000l0.000000 -17.187500l-32.906250 0.000000l0.000000 -9.515625z"/>
</defs>
<g style="fill: #000000; opacity: 1.000000" transform="translate(213.854688,401.706250)scale(0.120000)">
<use xlink:href="#c_a0416418d96557a09b8c1332d34883ba"/>
<use xlink:href="#c_7a2040fe3b94fcd41d0a72c84e93b115" x="63.623047"/>
</g>
</g>
</g>
<g id="xtick5">
<g id="line2d13">
<g ><use style="fill: none; stroke: #000000; stroke-width: 0.500000; stroke-linejoin: round; stroke-linecap: butt;  opacity: 1.000000" xlink:href="#m30e32995789d870ad79a2e54c91cf9c6" x="270.400000" y="388.800000"/>
</g></g>
<g id="line2d14">
<g ><use style="fill: none; stroke: #000000; stroke-width: 0.500000; stroke-linejoin: round; stroke-linecap: butt;  opacity: 1.000000" xlink:href="#m9281cae24120827b11d5ea8a7ad3e96b" x="270.400000" y="43.200000"/>
</g></g>
<g id="text5">
<defs>
<path id="c_1260a2df50f305f3db244e29828f968e" d="M10.796875 -72.906250l38.718750 0.000000l0.000000 8.312500l-29.687500 0.000000l0.000000 17.859375q2.140625 -0.734375 4.281250 -1.093750q2.156250 -0.359375 4.312500 -0.359375q12.203125 0.000000 19.328125 6.687500q7.140625 6.687500 7.140625 18.109375q0.000000 11.765625 -7.328125 18.296875q-7.328125 6.515625 -20.656250 6.515625q-4.593750 0.000000 -9.359375 -0.781250q-4.750000 -0.781250 -9.828125 -2.343750l0.000000 -9.921875q4.390625 2.390625 9.078125 3.562500q4.687500 1.171875 9.906250 1.171875q8.453125 0.000000 13.375000 -4.437500q4.937500 -4.437500 4.937500 -12.062500q0.000000 -7.609375 -4.937500 -12.046875q-4.921875 -4.453125 -13.375000 -4.453125q-3.953125 0.000000 -7.890625 0.875000q-3.921875 0.875000 -8.015625 2.734375z"/>
</defs>
<g style="fill: #000000; opacity: 1.000000" transform="translate(263.618750,401.706250)scale(0.120000)">
<use xlink:href="#c_1260a2df50f305f3db244e29828f968e"/>
<use xlink:href="#c_7a2040fe3b94fcd41d0a72c84e93b115" x="63.623047"/>
</g>
</g>
</g>
<g id="xtick6">
<g id="line2d15">
<g ><use style="fill: none; stroke: #000000; stroke-width: 0.500000; stroke-linejoin: round; stroke-linecap: butt;  opacity: 1.000000" xlink:href="#m30e32995789d870ad79a2e54c91cf9c6" x="320.000000" y="388.800000"/>
</g></g>
<g id="line2d16">
<g ><use style="fill: none; stroke: #000000; stroke-width: 0.500000; stroke-linejoin: round; stroke-linecap: butt;  opacity: 1.000000" xlink:href="#m9281cae24120827b11d5ea8a7ad3e96b" x="320.000000" y="43.200000"/>
</g></g>
<g id="text6">
<defs>
<path id="c_cc8d6d580d1b10c8632f7a42cd53db8a" d="M33.015625 -40.375000q-6.640625 0.000000 -10.531250 4.546875q-3.875000 4.531250 -3.875000 12.437500q0.000000 7.859375 3.875000 12.437500q3.890625 4.562500 10.531250 4.562500q6.640625 0.000000 10.515625 -4.562500q3.875000 -4.578125 3.875000 -12.437500q0.000000 -7.906250 -3.875000 -12.437500q-3.875000 -4.546875 -10.515625 -4.546875M52.593750 -71.296875l0.000000 8.984375q-3.718750 -1.750000 -7.500000 -2.671875q-3.781250 -0.937500 -7.500000 -0.937500q-9.765625 0.000000 -14.921875 6.593750q-5.140625 6.593750 -5.875000 19.921875q2.875000 -4.250000 7.218750 -6.515625q4.359375 -2.265625 9.578125 -2.265625q10.984375 0.000000 17.359375 6.671875q6.375000 6.656250 6.375000 18.125000q0.000000 11.234375 -6.640625 18.031250q-6.640625 6.781250 -17.671875 6.781250q-12.656250 0.000000 -19.343750 -9.687500q-6.687500 -9.703125 -6.687500 -28.109375q0.000000 -17.281250 8.203125 -27.562500q8.203125 -10.281250 22.015625 -10.281250q3.718750 0.000000 7.500000 0.734375q3.781250 0.734375 7.890625 2.187500"/>
</defs>
<g style="fill: #000000; opacity: 1.000000" transform="translate(313.179688,401.706250)scale(0.120000)">
<use xlink:href="#c_cc8d6d580d1b10c8632f7a42cd53db8a"/>
<use xlink:href="#c_7a2040fe3b94fcd41d0a72c84e93b115" x="63.623047"/>
</g>
</g>
</g>
<g id="xtick7">
<g id="line2d17">
<g ><use style="fill: none; stroke: #000000; stroke-width: 0.500000; stroke-linejoin: round; stroke-linecap: butt;  opacity: 1.000000" xlink:href="#m30e32995789d870ad79a2e54c91cf9c6" x="369.600000" y="388.800000"/>
</g></g>
<g id="line2d18">
<g ><use style="fill: none; stroke: #000000; stroke-width: 0.500000; stroke-linejoin: round; stroke-linecap: butt;  opacity: 1.000000" xlink:href="#m9281cae24120827b11d5ea8a7ad3e96b" x="369.600000" y="43.200000"/>
</g></g>
<g id="text7">
<defs>
<path id="c_956f18cfdaf972f35a6c2b4aaac2532b" d="M8.203125 -72.906250l46.875000 0.000000l0.000000 4.203125l-26.468750 68.703125l-10.296875 0.000000l24.906250 -64.593750l-35.015625 0.000000z"/>
</defs>
<g style="fill: #000000; opacity: 1.000000" transform="translate(362.850000,401.706250)scale(0.120000)">
<use xlink:href="#c_956f18cfdaf972f35a6c2b4aaac2532b"/>
<use xlink:href="#c_7a2040fe3b94fcd41d0a72c84e93b115" x="63.623047"/>
</g>
</g>
</g>
<g id="xtick8">
<g id="line2d19">
<g ><use style="fill: none; stroke: #000000; stroke-width: 0.500000; stroke-linejoin: round; stroke-linecap: butt;  opacity: 1.000000" xlink:href="#m30e32995789d870ad79a2e54c91cf9c6" x="419.200000" y="388.800000"/>
</g></g>
<g id="line2d20">
<g ><use style="fill: none; stroke: #000000; stroke-width: 0.500000; stroke-linejoin: round; stroke-linecap: butt;  opacity: 1.000000" xlink:href="#m9281cae24120827b11d5ea8a7ad3e96b" x="419.200000" y="43.200000"/>
</g></g>
<g id="text8">
<defs>
<path id="c_bef35738d52871942e50b9de9b122bab" d="M31.781250 -34.625000q-7.031250 0.000000 -11.062500 3.765625q-4.015625 3.765625 -4.015625 10.343750q0.000000 6.593750 4.015625 10.359375q4.031250 3.765625 11.062500 3.765625q7.031250 0.000000 11.078125 -3.781250q4.062500 -3.796875 4.062500 -10.343750q0.000000 -6.578125 -4.031250 -10.343750q-4.015625 -3.765625 -11.109375 -3.765625M21.921875 -38.812500q-6.343750 -1.562500 -9.890625 -5.906250q-3.531250 -4.359375 -3.531250 -10.609375q0.000000 -8.734375 6.218750 -13.812500q6.234375 -5.078125 17.062500 -5.078125q10.890625 0.000000 17.093750 5.078125q6.203125 5.078125 6.203125 13.812500q0.000000 6.250000 -3.546875 10.609375q-3.531250 4.343750 -9.828125 5.906250q7.125000 1.656250 11.093750 6.500000q3.984375 4.828125 3.984375 11.796875q0.000000 10.609375 -6.468750 16.281250q-6.468750 5.656250 -18.531250 5.656250q-12.046875 0.000000 -18.531250 -5.656250q-6.468750 -5.671875 -6.468750 -16.281250q0.000000 -6.968750 4.000000 -11.796875q4.015625 -4.843750 11.140625 -6.500000M18.312500 -54.390625q0.000000 5.656250 3.531250 8.828125q3.546875 3.171875 9.937500 3.171875q6.359375 0.000000 9.937500 -3.171875q3.593750 -3.171875 3.593750 -8.828125q0.000000 -5.671875 -3.593750 -8.843750q-3.578125 -3.171875 -9.937500 -3.171875q-6.390625 0.000000 -9.937500 3.171875q-3.531250 3.171875 -3.531250 8.843750"/>
</defs>
<g style="fill: #000000; opacity: 1.000000" transform="translate(412.364062,401.706250)scale(0.120000)">
<use xlink:href="#c_bef35738d52871942e50b9de9b122bab"/>
<use xlink:href="#c_7a2040fe3b94fcd41d0a72c84e93b115" x="63.623047"/>
</g>
</g>
</g>
<g id="xtick9">
<g id="line2d21">
<g ><use style="fill: none; stroke: #000000; stroke-width: 0.500000; stroke-linejoin: round; stroke-linecap: butt;  opacity: 1.000000" xlink:href="#m30e32995789d870ad79a2e54c91cf9c6" x="468.800000" y="388.800000"/>
</g></g>
<g id="line2d22">
<g ><use style="fill: none; stroke: #000000; stroke-width: 0.500000; stroke-linejoin: round; stroke-linecap: butt;  opacity: 1.000000" xlink:href="#m9281cae24120827b11d5ea8a7ad3e96b" x="468.800000" y="43.200000"/>
</g></g>
<g id="text9">
<defs>
<path id="c_cd96f817f3cab988d24a2b49a5577fe6" d="M10.984375 -1.515625l0.000000 -8.984375q3.718750 1.765625 7.515625 2.687500q3.812500 0.921875 7.484375 0.921875q9.765625 0.000000 14.906250 -6.562500q5.156250 -6.562500 5.890625 -19.953125q-2.828125 4.203125 -7.187500 6.453125q-4.343750 2.250000 -9.609375 2.250000q-10.937500 0.000000 -17.312500 -6.609375q-6.375000 -6.625000 -6.375000 -18.109375q0.000000 -11.218750 6.640625 -18.000000q6.640625 -6.796875 17.671875 -6.796875q12.656250 0.000000 19.312500 9.703125q6.671875 9.687500 6.671875 28.140625q0.000000 17.234375 -8.187500 27.515625q-8.171875 10.281250 -21.984375 10.281250q-3.718750 0.000000 -7.531250 -0.734375q-3.796875 -0.734375 -7.906250 -2.203125M30.609375 -32.421875q6.640625 0.000000 10.515625 -4.531250q3.890625 -4.546875 3.890625 -12.468750q0.000000 -7.859375 -3.890625 -12.421875q-3.875000 -4.562500 -10.515625 -4.562500q-6.640625 0.000000 -10.515625 4.562500q-3.875000 4.562500 -3.875000 12.421875q0.000000 7.921875 3.875000 12.468750q3.875000 4.531250 10.515625 4.531250"/>
</defs>
<g style="fill: #000000; opacity: 1.000000" transform="translate(461.932813,401.706250)scale(0.120000)">
<use xlink:href="#c_cd96f817f3cab988d24a2b49a5577fe6"/>
<use xlink:href="#c_7a2040fe3b94fcd41d0a72c84e93b115" x="63.623047"/>
</g>
</g>
</g>
<g id="xtick10">
<g id="line2d23">
<g ><use style="fill: none; stroke: #000000; stroke-width: 0.500000; stroke-linejoin: round; stroke-linecap: butt;  opacity: 1.000000" xlink:href="#m30e32995789d870ad79a2e54c91cf9c6" x="518.400000" y="388.800000"/>
</g></g>
<g id="line2d24">
<g ><use style="fill: none; stroke: #000000; stroke-width: 0.500000; stroke-linejoin: round; stroke-linecap: butt;  opacity: 1.000000" xlink:href="#m9281cae24120827b11d5ea8a7ad3e96b" x="518.400000" y="43.200000"/>
</g></g>
<g id="text10">
<g style="fill: #000000; opacity: 1.000000" transform="translate(507.993750,401.706250)scale(0.120000)">
<use xlink:href="#c_42baa63129a918535c52adb20d687ea7"/>
<use xlink:href="#c_7a2040fe3b94fcd41d0a72c84e93b115" x="63.623047"/>
<use xlink:href="#c_7a2040fe3b94fcd41d0a72c84e93b115" x="127.246094"/>
</g>
</g>
</g>
<g id="text11">
<defs>
<path id="c_4c6532c564269b2c70b230c2e45c01e4" d="M44.390625 -34.187500q3.171875 1.078125 6.171875 4.593750q3.000000 3.515625 6.031250 9.671875l10.015625 19.921875l-10.609375 0.000000l-9.312500 -18.703125q-3.625000 -7.328125 -7.015625 -9.718750q-3.390625 -2.390625 -9.250000 -2.390625l-10.750000 0.000000l0.000000 30.812500l-9.859375 0.000000l0.000000 -72.906250l22.265625 0.000000q12.500000 0.000000 18.656250 5.234375q6.156250 5.218750 6.156250 15.765625q0.000000 6.890625 -3.203125 11.437500q-3.203125 4.531250 -9.296875 6.281250M19.671875 -64.796875l0.000000 25.875000l12.406250 0.000000q7.125000 0.000000 10.765625 -3.296875q3.640625 -3.296875 3.640625 -9.687500q0.000000 -6.390625 -3.640625 -9.640625q-3.640625 -3.250000 -10.765625 -3.250000z"/>
<path id="c_01d93a582460e35a7945ca50d148ffeb" d="M34.281250 -27.484375q-10.890625 0.000000 -15.093750 2.484375q-4.203125 2.484375 -4.203125 8.500000q0.000000 4.781250 3.156250 7.593750q3.156250 2.796875 8.562500 2.796875q7.484375 0.000000 12.000000 -5.296875q4.515625 -5.296875 4.515625 -14.078125l0.000000 -2.000000zM52.203125 -31.203125l0.000000 31.203125l-8.984375 0.000000l0.000000 -8.296875q-3.078125 4.968750 -7.671875 7.343750q-4.593750 2.375000 -11.234375 2.375000q-8.390625 0.000000 -13.359375 -4.718750q-4.953125 -4.718750 -4.953125 -12.625000q0.000000 -9.218750 6.171875 -13.906250q6.187500 -4.687500 18.437500 -4.687500l12.609375 0.000000l0.000000 -0.890625q0.000000 -6.203125 -4.078125 -9.593750q-4.078125 -3.390625 -11.453125 -3.390625q-4.687500 0.000000 -9.140625 1.125000q-4.437500 1.125000 -8.531250 3.375000l0.000000 -8.312500q4.921875 -1.906250 9.562500 -2.843750q4.640625 -0.953125 9.031250 -0.953125q11.875000 0.000000 17.734375 6.156250q5.859375 6.140625 5.859375 18.640625"/>
<path id="c_fe791a90f5471e2ab20a5ed41a7fa451" d="M54.890625 -33.015625l0.000000 33.015625l-8.984375 0.000000l0.000000 -32.718750q0.000000 -7.765625 -3.031250 -11.609375q-3.031250 -3.859375 -9.078125 -3.859375q-7.281250 0.000000 -11.484375 4.640625q-4.203125 4.625000 -4.203125 12.640625l0.000000 30.906250l-9.031250 0.000000l0.000000 -54.687500l9.031250 0.000000l0.000000 8.500000q3.234375 -4.937500 7.593750 -7.375000q4.375000 -2.437500 10.093750 -2.437500q9.421875 0.000000 14.250000 5.828125q4.843750 5.828125 4.843750 17.156250"/>
<path id="c_e3864de5dabf2f8dd9eee74726882ec1" d="M45.406250 -27.984375q0.000000 -9.765625 -4.031250 -15.125000q-4.015625 -5.375000 -11.296875 -5.375000q-7.218750 0.000000 -11.250000 5.375000q-4.031250 5.359375 -4.031250 15.125000q0.000000 9.718750 4.031250 15.093750q4.031250 5.375000 11.250000 5.375000q7.281250 0.000000 11.296875 -5.375000q4.031250 -5.375000 4.031250 -15.093750M54.390625 -6.781250q0.000000 13.953125 -6.203125 20.765625q-6.187500 6.812500 -18.984375 6.812500q-4.734375 0.000000 -8.937500 -0.703125q-4.203125 -0.703125 -8.156250 -2.171875l0.000000 -8.734375q3.953125 2.140625 7.812500 3.156250q3.859375 1.031250 7.859375 1.031250q8.843750 0.000000 13.234375 -4.609375q4.390625 -4.609375 4.390625 -13.937500l0.000000 -4.453125q-2.781250 4.843750 -7.125000 7.234375q-4.343750 2.390625 -10.406250 2.390625q-10.046875 0.000000 -16.203125 -7.656250q-6.156250 -7.671875 -6.156250 -20.328125q0.000000 -12.687500 6.156250 -20.343750q6.156250 -7.671875 16.203125 -7.671875q6.062500 0.000000 10.406250 2.390625q4.343750 2.390625 7.125000 7.218750l0.000000 -8.296875l8.984375 0.000000z"/>
<path id="c_0bce5afba2dc6b9024b26277c38ad8e8" d="M56.203125 -29.593750l0.000000 4.390625l-41.312500 0.000000q0.593750 9.281250 5.593750 14.140625q5.000000 4.859375 13.937500 4.859375q5.171875 0.000000 10.031250 -1.265625q4.859375 -1.265625 9.656250 -3.812500l0.000000 8.500000q-4.843750 2.046875 -9.921875 3.125000q-5.078125 1.078125 -10.296875 1.078125q-13.093750 0.000000 -20.734375 -7.609375q-7.640625 -7.625000 -7.640625 -20.625000q0.000000 -13.421875 7.250000 -21.296875q7.250000 -7.890625 19.562500 -7.890625q11.031250 0.000000 17.453125 7.109375q6.421875 7.093750 6.421875 19.296875M47.218750 -32.234375q-0.093750 -7.359375 -4.125000 -11.750000q-4.031250 -4.406250 -10.671875 -4.406250q-7.515625 0.000000 -12.031250 4.250000q-4.515625 4.250000 -5.203125 11.968750z"/>
</defs>
<g style="fill: #000000; opacity: 1.000000" transform="translate(277.067187,415.628125)scale(0.120000)">
<use xlink:href="#c_4c6532c564269b2c70b230c2e45c01e4"/>
<use xlink:href="#c_01d93a582460e35a7945ca50d148ffeb" x="67.232422"/>
<use xlink:href="#c_fe791a90f5471e2ab20a5ed41a7fa451" x="128.511719"/>
<use xlink:href="#c_e3864de5dabf2f8dd9eee74726882ec1" x="191.890625"/>
<use xlink:href="#c_0bce5afba2dc6b9024b26277c38ad8e8" x="255.367188"/>
</g>
</g>
</g>
<g id="matplotlib.axis2">
<g id="ytick1">
<g id="line2d25">
<defs><path id="m3400efa6b1638b3fea9e19e898273957" d="M0.000000 0.000000L4.000000 0.000000"/></defs>
<g ><use style="fill: none; stroke: #000000; stroke-width: 0.500000; stroke-linejoin: round; stroke-linecap: butt;  opacity: 1.000000" xlink:href="#m3400efa6b1638b3fea9e19e898273957" x="72.000000" y="388.800000"/>
</g></g>
<g id="line2d26">
<defs><path id="m20b58b2501143cb5e0a5e8f1ef6f1643" d="M0.000000 0.000000L-4.000000 0.000000"/></defs>
<g ><use style="fill: none; stroke: #000000; stroke-width: 0.500000; stroke-linejoin: round; stroke-linecap: butt;  opacity: 1.000000" xlink:href="#m20b58b2501143cb5e0a5e8f1ef6f1643" x="518.400000" y="388.800000"/>
</g></g>
<g id="text12">
<g style="fill: #000000; opacity: 1.000000" transform="translate(61.953125,393.167188)scale(0.120000)">
<use xlink:href="#c_7a2040fe3b94fcd41d0a72c84e93b115"/>
</g>
</g>
</g>
<g id="ytick2">
<g id="line2d27">
<g ><use style="fill: none; stroke: #000000; stroke-width: 0.500000; stroke-linejoin: round; stroke-linecap: butt;  opacity: 1.000000" xlink:href="#m3400efa6b1638b3fea9e19e898273957" x="72.000000" y="319.680000"/>
</g></g>
<g id="line2d28">
<g ><use style="fill: none; stroke: #000000; stroke-width: 0.500000; stroke-linejoin: round; stroke-linecap: butt;  opacity: 1.000000" xlink:href="#m20b58b2501143cb5e0a5e8f1ef6f1643" x="518.400000" y="319.680000"/>
</g></g>
<g id="text13">
<g style="fill: #000000; opacity: 1.000000" transform="translate(54.390625,324.047188)scale(0.120000)">
<use xlink:href="#c_ed3f3ed3ebfbd18bcb9c012009a68ad1"/>
<use xlink:href="#c_7a2040fe3b94fcd41d0a72c84e93b115" x="63.623047"/>
</g>
</g>
</g>
<g id="ytick3">
<g id="line2d29">
<g ><use style="fill: none; stroke: #000000; stroke-width: 0.500000; stroke-linejoin: round; stroke-linecap: butt;  opacity: 1.000000" xlink:href="#m3400efa6b1638b3fea9e19e898273957" x="72.000000" y="250.560000"/>
</g></g>
<g id="line2d30">
<g ><use style="fill: none; stroke: #000000; stroke-width: 0.500000; stroke-linejoin: round; stroke-linecap: butt;  opacity: 1.000000" xlink:href="#m20b58b2501143cb5e0a5e8f1ef6f1643" x="518.400000" y="250.560000"/>
</g></g>
<g id="text14">
<g style="fill: #000000; opacity: 1.000000" transform="translate(54.109375,254.927188)scale(0.120000)">
<use xlink:href="#c_a0416418d96557a09b8c1332d34883ba"/>
<use xlink:href="#c_7a2040fe3b94fcd41d0a72c84e93b115" x="63.623047"/>
</g>
</g>
</g>
<g id="ytick4">
<g id="line2d31">
<g ><use style="fill: none; stroke: #000000; stroke-width: 0.500000; stroke-linejoin: round; stroke-linecap: butt;  opacity: 1.000000" xlink:href="#m3400efa6b1638b3fea9e19e898273957" x="72.000000" y="181.440000"/>
</g></g>
<g id="line2d32">
<g ><use style="fill: none; stroke: #000000; stroke-width: 0.500000; stroke-linejoin: round; stroke-linecap: butt;  opacity: 1.000000" xlink:href="#m20b58b2501143cb5e0a5e8f1ef6f1643" x="518.400000" y="181.440000"/>
</g></g>
<g id="text15">
<g style="fill: #000000; opacity: 1.000000" transform="translate(54.359375,185.807187)scale(0.120000)">
<use xlink:href="#c_cc8d6d580d1b10c8632f7a42cd53db8a"/>
<use xlink:href="#c_7a2040fe3b94fcd41d0a72c84e93b115" x="63.623047"/>
</g>
</g>
</g>
<g id="ytick5">
<g id="line2d33">
<g ><use style="fill: none; stroke: #000000; stroke-width: 0.500000; stroke-linejoin: round; stroke-linecap: butt;  opacity: 1.000000" xlink:href="#m3400efa6b1638b3fea9e19e898273957" x="72.000000" y="112.320000"/>
</g></g>
<g id="line2d34">
<g ><use style="fill: none; stroke: #000000; stroke-width: 0.500000; stroke-linejoin: round; stroke-linecap: butt;  opacity: 1.000000" xlink:href="#m20b58b2501143cb5e0a5e8f1ef6f1643" x="518.400000" y="112.320000"/>
</g></g>
<g id="text16">
<g style="fill: #000000; opacity: 1.000000" transform="translate(54.328125,116.687187)scale(0.120000)">
<use xlink:href="#c_bef35738d52871942e50b9de9b122bab"/>
<use xlink:href="#c_7a2040fe3b94fcd41d0a72c84e93b115" x="63.623047"/>
</g>
</g>
</g>
<g id="ytick6">
<g id="line2d35">
<g ><use style="fill: none; stroke: #000000; stroke-width: 0.500000; stroke-linejoin: round; stroke-linecap: butt;  opacity: 1.000000" xlink:href="#m3400efa6b1638b3fea9e19e898273957" x="72.000000" y="43.200000"/>
</g></g>
<g id="line2d36">
<g ><use style="fill: none; stroke: #000000; stroke-width: 0.500000; stroke-linejoin: round; stroke-linecap: butt;  opacity: 1.000000" xlink:href="#m20b58b2501143cb5e0a5e8f1ef6f1643" x="518.400000" y="43.200000"/>
</g></g>
<g id="text17">
<g style="fill: #000000; opacity: 1.000000" transform="translate(47.187500,47.567187)scale(0.120000)">
<use xlink:href="#c_42baa63129a918535c52adb20d687ea7"/>
<use xlink:href="#c_7a2040fe3b94fcd41d0a72c84e93b115" x="63.623047"/>
<use xlink:href="#c_7a2040fe3b94fcd41d0a72c84e93b115" x="127.246094"/>
</g>
</g>
</g>
<g id="text18">
<defs>
<path id="c_07e3f33241aff50afcba519606f2a979" d="M9.812500 -72.906250l9.859375 0.000000l0.000000 64.609375l35.500000 0.000000l0.000000 8.296875l-45.359375 0.000000z"/>
<path id="c_6a63bda47b2f3da1cec6aadd80692cfe" d="M9.421875 -54.687500l8.984375 0.000000l0.000000 54.687500l-8.984375 0.000000zM9.421875 -75.984375l8.984375 0.000000l0.000000 11.390625l-8.984375 0.000000z"/>
<path id="c_d41d8cd98f00b204e9800998ecf8427e" d=""/>
<path id="c_a469f8ee191679fe73f3b765bd271597" d="M64.406250 -67.281250l0.000000 10.390625q-4.984375 -4.640625 -10.625000 -6.921875q-5.640625 -2.296875 -11.984375 -2.296875q-12.500000 0.000000 -19.140625 7.640625q-6.640625 7.640625 -6.640625 22.093750q0.000000 14.406250 6.640625 22.046875q6.640625 7.640625 19.140625 7.640625q6.343750 0.000000 11.984375 -2.296875q5.640625 -2.296875 10.625000 -6.937500l0.000000 10.312500q-5.171875 3.515625 -10.968750 5.281250q-5.781250 1.750000 -12.218750 1.750000q-16.562500 0.000000 -26.093750 -10.125000q-9.515625 -10.140625 -9.515625 -27.671875q0.000000 -17.578125 9.515625 -27.703125q9.531250 -10.140625 26.093750 -10.140625q6.531250 0.000000 12.312500 1.734375q5.796875 1.734375 10.875000 5.203125"/>
<path id="c_f05dd90d41f04bb96ef1ca503cc2044b" d="M30.609375 -48.390625q-7.218750 0.000000 -11.421875 5.640625q-4.203125 5.640625 -4.203125 15.453125q0.000000 9.812500 4.171875 15.453125q4.187500 5.640625 11.453125 5.640625q7.187500 0.000000 11.375000 -5.656250q4.203125 -5.671875 4.203125 -15.437500q0.000000 -9.718750 -4.203125 -15.406250q-4.187500 -5.687500 -11.375000 -5.687500M30.609375 -56.000000q11.718750 0.000000 18.406250 7.625000q6.703125 7.609375 6.703125 21.078125q0.000000 13.421875 -6.703125 21.078125q-6.687500 7.640625 -18.406250 7.640625q-11.765625 0.000000 -18.437500 -7.640625q-6.656250 -7.656250 -6.656250 -21.078125q0.000000 -13.468750 6.656250 -21.078125q6.671875 -7.625000 18.437500 -7.625000"/>
<path id="c_3b515ad41f960e225ec85275856806ca" d="M8.500000 -21.578125l0.000000 -33.109375l8.984375 0.000000l0.000000 32.765625q0.000000 7.765625 3.015625 11.656250q3.031250 3.875000 9.093750 3.875000q7.265625 0.000000 11.484375 -4.640625q4.234375 -4.640625 4.234375 -12.656250l0.000000 -31.000000l8.984375 0.000000l0.000000 54.687500l-8.984375 0.000000l0.000000 -8.406250q-3.265625 4.984375 -7.593750 7.406250q-4.312500 2.421875 -10.031250 2.421875q-9.421875 0.000000 -14.312500 -5.859375q-4.875000 -5.859375 -4.875000 -17.140625M31.109375 -56.000000z"/>
<path id="c_0f8c41144cfbf448378cb6fd1cc8e549" d="M18.312500 -70.218750l0.000000 15.531250l18.500000 0.000000l0.000000 6.984375l-18.500000 0.000000l0.000000 29.687500q0.000000 6.687500 1.828125 8.593750q1.828125 1.906250 7.453125 1.906250l9.218750 0.000000l0.000000 7.515625l-9.218750 0.000000q-10.406250 0.000000 -14.359375 -3.875000q-3.953125 -3.890625 -3.953125 -14.140625l0.000000 -29.687500l-6.593750 0.000000l0.000000 -6.984375l6.593750 0.000000l0.000000 -15.531250z"/>
</defs>
<g style="fill: #000000; opacity: 1.000000" transform="translate(42.187500,247.921875)rotate(-90.0)scale(0.120000)">
<use xlink:href="#c_07e3f33241aff50afcba519606f2a979"/>
<use xlink:href="#c_6a63bda47b2f3da1cec6aadd80692cfe" x="55.712891"/>
<use xlink:href="#c_fe791a90f5471e2ab20a5ed41a7fa451" x="83.496094"/>
<use xlink:href="#c_0bce5afba2dc6b9024b26277c38ad8e8" x="146.875000"/>
<use xlink:href="#c_d41d8cd98f00b204e9800998ecf8427e" x="208.398437"/>
<use xlink:href="#c_a469f8ee191679fe73f3b765bd271597" x="240.185547"/>
<use xlink:href="#c_f05dd90d41f04bb96ef1ca503cc2044b" x="310.009766"/>
<use xlink:href="#c_3b515ad41f960e225ec85275856806ca" x="371.191406"/>
<use xlink:href="#c_fe791a90f5471e2ab20a5ed41a7fa451" x="434.570313"/>
<use xlink:href="#c_0f8c41144cfbf448378cb6fd1cc8e549" x="497.949219"/>
</g>
</g>
</g>
<g id="patch3">
<path style="fill: none; stroke: #000000; stroke-width: 1.000000; stroke-linejoin: round; stroke-linecap: square;  opacity: 1.000000"  d="M72.000000 43.200000L518.400000 43.200000"/>
</g>
<g id="patch4">
<path style="fill: none; stroke: #000000; stroke-width: 1.000000; stroke-linejoin: round; stroke-linecap: square;  opacity: 1.000000"  d="M518.400000 388.800000L518.400000 43.200000"/>
</g>
<g id="patch5">
<path style="fill: none; stroke: #000000; stroke-width: 1.000000; stroke-linejoin: round; stroke-linecap: square;  opacity: 1.000000"  d="M72.000000 388.800000L518.400000 388.800000"/>
</g>
<g id="patch6">
<path style="fill: none; stroke: #000000; stroke-width: 1.000000; stroke-linejoin: round; stroke-linecap: square;  opacity: 1.000000"  d="M72.000000 388.800000L72.000000 43.200000"/>
</g>
<g id="legend1">
<g id="patch7">
<path style="fill: #4d4d4d; stroke: #4d4d4d; stroke-width: 1.000000; stroke-linejoin: round; stroke-linecap: square;  opacity: 1.000000"  d="M151.022187 139.707500L443.377813 139.707500L443.377813 52.400000
L151.022187 52.400000L151.022187 139.707500z"/>
</g>
<g id="patch8">
<path style="fill: #ffffff; stroke: #000000; stroke-width: 1.000000; stroke-linejoin: round; stroke-linecap: square;  opacity: 1.000000"  d="M149.022187 137.707500L441.377813 137.707500L441.377813 50.400000
L149.022187 50.400000L149.022187 137.707500z"/>
</g>
<g id="line2d37">
<path style="fill: none; stroke: #0000ff; stroke-width: 1.000000; stroke-linejoin: round; stroke-linecap: square;  opacity: 1.000000"  d="M159.102187 61.760625L179.262187 61.760625"/>
</g>
<g id="line2d38">
</g>
<g id="text19">
<defs>
<path id="c_5d9b0d099c491f27a9f40b391fa98eef" d="M9.812500 -72.906250l41.890625 0.000000l0.000000 8.312500l-32.031250 0.000000l0.000000 21.484375l28.906250 0.000000l0.000000 8.296875l-28.906250 0.000000l0.000000 34.812500l-9.859375 0.000000z"/>
<path id="c_5cc9741494d2ad8f9764e03ae145569f" d="M48.687500 -27.296875q0.000000 -9.906250 -4.078125 -15.546875q-4.078125 -5.640625 -11.203125 -5.640625q-7.140625 0.000000 -11.218750 5.640625q-4.078125 5.640625 -4.078125 15.546875q0.000000 9.906250 4.078125 15.546875q4.078125 5.640625 11.218750 5.640625q7.125000 0.000000 11.203125 -5.640625q4.078125 -5.640625 4.078125 -15.546875M18.109375 -46.390625q2.843750 -4.875000 7.156250 -7.234375q4.328125 -2.375000 10.328125 -2.375000q9.968750 0.000000 16.187500 7.906250q6.234375 7.906250 6.234375 20.796875q0.000000 12.890625 -6.234375 20.812500q-6.218750 7.906250 -16.187500 7.906250q-6.000000 0.000000 -10.328125 -2.375000q-4.312500 -2.375000 -7.156250 -7.250000l0.000000 8.203125l-9.031250 0.000000l0.000000 -75.984375l9.031250 0.000000z"/>
<path id="c_d650c37394b681142a10dfc54356d478" d="M48.781250 -52.593750l0.000000 8.406250q-3.812500 -2.109375 -7.640625 -3.156250q-3.828125 -1.046875 -7.734375 -1.046875q-8.750000 0.000000 -13.593750 5.546875q-4.828125 5.531250 -4.828125 15.546875q0.000000 10.015625 4.828125 15.562500q4.843750 5.531250 13.593750 5.531250q3.906250 0.000000 7.734375 -1.046875q3.828125 -1.046875 7.640625 -3.156250l0.000000 8.312500q-3.765625 1.750000 -7.796875 2.625000q-4.015625 0.890625 -8.562500 0.890625q-12.359375 0.000000 -19.640625 -7.765625q-7.265625 -7.765625 -7.265625 -20.953125q0.000000 -13.375000 7.343750 -21.031250q7.359375 -7.671875 20.156250 -7.671875q4.140625 0.000000 8.093750 0.859375q3.953125 0.843750 7.671875 2.546875"/>
<path id="c_518d586bee075aa0153eaebfcb5ab11f" d="M19.671875 -64.796875l0.000000 27.390625l12.406250 0.000000q6.890625 0.000000 10.640625 -3.562500q3.765625 -3.562500 3.765625 -10.156250q0.000000 -6.546875 -3.765625 -10.109375q-3.750000 -3.562500 -10.640625 -3.562500zM9.812500 -72.906250l22.265625 0.000000q12.265625 0.000000 18.531250 5.546875q6.281250 5.546875 6.281250 16.234375q0.000000 10.796875 -6.281250 16.312500q-6.265625 5.515625 -18.531250 5.515625l-12.406250 0.000000l0.000000 29.296875l-9.859375 0.000000z"/>
<path id="c_6ec8d5749226675394676a5d2a3b468b" d="M41.109375 -46.296875q-1.515625 -0.875000 -3.296875 -1.281250q-1.781250 -0.421875 -3.921875 -0.421875q-7.625000 0.000000 -11.703125 4.953125q-4.078125 4.953125 -4.078125 14.234375l0.000000 28.812500l-9.031250 0.000000l0.000000 -54.687500l9.031250 0.000000l0.000000 8.500000q2.843750 -4.984375 7.375000 -7.390625q4.546875 -2.421875 11.046875 -2.421875q0.921875 0.000000 2.046875 0.125000q1.125000 0.109375 2.484375 0.359375z"/>
<path id="c_3fe22c4af425ac970aec982ae9662abe" d="M32.171875 5.078125q-3.796875 9.765625 -7.421875 12.734375q-3.609375 2.984375 -9.656250 2.984375l-7.187500 0.000000l0.000000 -7.515625l5.281250 0.000000q3.703125 0.000000 5.750000 -1.765625q2.062500 -1.750000 4.546875 -8.296875l1.609375 -4.093750l-22.109375 -53.812500l9.515625 0.000000l17.093750 42.765625l17.093750 -42.765625l9.515625 0.000000z"/>
<path id="c_46f5d86430594d4affc2299f73adabe3" d="M39.406250 -66.218750q-10.750000 0.000000 -17.078125 8.015625q-6.312500 8.000000 -6.312500 21.828125q0.000000 13.765625 6.312500 21.781250q6.328125 8.000000 17.078125 8.000000q10.734375 0.000000 17.015625 -8.000000q6.281250 -8.015625 6.281250 -21.781250q0.000000 -13.828125 -6.281250 -21.828125q-6.281250 -8.015625 -17.015625 -8.015625M53.218750 -1.312500l13.000000 14.203125l-11.921875 0.000000l-10.796875 -11.671875q-1.609375 0.093750 -2.468750 0.140625q-0.843750 0.062500 -1.625000 0.062500q-15.375000 0.000000 -24.593750 -10.281250q-9.203125 -10.281250 -9.203125 -27.515625q0.000000 -17.281250 9.203125 -27.562500q9.218750 -10.281250 24.593750 -10.281250q15.328125 0.000000 24.500000 10.281250q9.187500 10.281250 9.187500 27.562500q0.000000 12.687500 -5.109375 21.734375q-5.093750 9.031250 -14.765625 13.328125"/>
<path id="c_7b26b13f539f13a4c64eef23b6952d29" d="M4.890625 -31.390625l26.312500 0.000000l0.000000 8.000000l-26.312500 0.000000z"/>
</defs>
<g style="fill: #000000; opacity: 1.000000" transform="translate(195.102187,66.800625)scale(0.144000)">
<use xlink:href="#c_5d9b0d099c491f27a9f40b391fa98eef"/>
<use xlink:href="#c_6a63bda47b2f3da1cec6aadd80692cfe" x="50.269531"/>
<use xlink:href="#c_5cc9741494d2ad8f9764e03ae145569f" x="78.052734"/>
<use xlink:href="#c_f05dd90d41f04bb96ef1ca503cc2044b" x="141.529297"/>
<use xlink:href="#c_fe791a90f5471e2ab20a5ed41a7fa451" x="202.710938"/>
<use xlink:href="#c_01d93a582460e35a7945ca50d148ffeb" x="266.089844"/>
<use xlink:href="#c_d650c37394b681142a10dfc54356d478" x="327.369141"/>
<use xlink:href="#c_d650c37394b681142a10dfc54356d478" x="382.349609"/>
<use xlink:href="#c_6a63bda47b2f3da1cec6aadd80692cfe" x="437.330078"/>
<use xlink:href="#c_d41d8cd98f00b204e9800998ecf8427e" x="465.113281"/>
<use xlink:href="#c_518d586bee075aa0153eaebfcb5ab11f" x="496.900391"/>
<use xlink:href="#c_6ec8d5749226675394676a5d2a3b468b" x="555.453125"/>
<use xlink:href="#c_6a63bda47b2f3da1cec6aadd80692cfe" x="596.566406"/>
<use xlink:href="#c_f05dd90d41f04bb96ef1ca503cc2044b" x="624.349609"/>
<use xlink:href="#c_6ec8d5749226675394676a5d2a3b468b" x="685.531250"/>
<use xlink:href="#c_6a63bda47b2f3da1cec6aadd80692cfe" x="726.644531"/>
<use xlink:href="#c_0f8c41144cfbf448378cb6fd1cc8e549" x="754.427734"/>
<use xlink:href="#c_3fe22c4af425ac970aec982ae9662abe" x="793.636719"/>
<use xlink:href="#c_d41d8cd98f00b204e9800998ecf8427e" x="852.816406"/>
<use xlink:href="#c_46f5d86430594d4affc2299f73adabe3" x="884.603516"/>
<use xlink:href="#c_3b515ad41f960e225ec85275856806ca" x="963.314453"/>
<use xlink:href="#c_0bce5afba2dc6b9024b26277c38ad8e8" x="1026.693359"/>
<use xlink:href="#c_3b515ad41f960e225ec85275856806ca" x="1088.216797"/>
<use xlink:href="#c_0bce5afba2dc6b9024b26277c38ad8e8" x="1151.595703"/>
<use xlink:href="#c_d41d8cd98f00b204e9800998ecf8427e" x="1213.119141"/>
<use xlink:href="#c_7b26b13f539f13a4c64eef23b6952d29" x="1244.906250"/>
<use xlink:href="#c_d41d8cd98f00b204e9800998ecf8427e" x="1280.990234"/>
<use xlink:href="#c_07e3f33241aff50afcba519606f2a979" x="1312.777344"/>
<use xlink:href="#c_6a63bda47b2f3da1cec6aadd80692cfe" x="1368.490234"/>
<use xlink:href="#c_fe791a90f5471e2ab20a5ed41a7fa451" x="1396.273438"/>
<use xlink:href="#c_0bce5afba2dc6b9024b26277c38ad8e8" x="1459.652344"/>
<use xlink:href="#c_d41d8cd98f00b204e9800998ecf8427e" x="1521.175781"/>
<use xlink:href="#c_42baa63129a918535c52adb20d687ea7" x="1552.962891"/>
<use xlink:href="#c_3dcfa38a02242cb63ec6726c6e70be7a" x="1616.585938"/>
</g>
</g>
<g id="line2d39">
<path style="fill: none; stroke: #008000; stroke-width: 1.000000; stroke-linejoin: round; stroke-linecap: square;  opacity: 1.000000"  d="M159.102187 82.507500L179.262187 82.507500"/>
</g>
<g id="line2d40">
</g>
<g id="text20">
<g style="fill: #000000; opacity: 1.000000" transform="translate(195.102187,87.547500)scale(0.144000)">
<use xlink:href="#c_5d9b0d099c491f27a9f40b391fa98eef"/>
<use xlink:href="#c_6a63bda47b2f3da1cec6aadd80692cfe" x="50.269531"/>
<use xlink:href="#c_5cc9741494d2ad8f9764e03ae145569f" x="78.052734"/>
<use xlink:href="#c_f05dd90d41f04bb96ef1ca503cc2044b" x="141.529297"/>
<use xlink:href="#c_fe791a90f5471e2ab20a5ed41a7fa451" x="202.710938"/>
<use xlink:href="#c_01d93a582460e35a7945ca50d148ffeb" x="266.089844"/>
<use xlink:href="#c_d650c37394b681142a10dfc54356d478" x="327.369141"/>
<use xlink:href="#c_d650c37394b681142a10dfc54356d478" x="382.349609"/>
<use xlink:href="#c_6a63bda47b2f3da1cec6aadd80692cfe" x="437.330078"/>
<use xlink:href="#c_d41d8cd98f00b204e9800998ecf8427e" x="465.113281"/>
<use xlink:href="#c_518d586bee075aa0153eaebfcb5ab11f" x="496.900391"/>
<use xlink:href="#c_6ec8d5749226675394676a5d2a3b468b" x="555.453125"/>
<use xlink:href="#c_6a63bda47b2f3da1cec6aadd80692cfe" x="596.566406"/>
<use xlink:href="#c_f05dd90d41f04bb96ef1ca503cc2044b" x="624.349609"/>
<use xlink:href="#c_6ec8d5749226675394676a5d2a3b468b" x="685.531250"/>
<use xlink:href="#c_6a63bda47b2f3da1cec6aadd80692cfe" x="726.644531"/>
<use xlink:href="#c_0f8c41144cfbf448378cb6fd1cc8e549" x="754.427734"/>
<use xlink:href="#c_3fe22c4af425ac970aec982ae9662abe" x="793.636719"/>
<use xlink:href="#c_d41d8cd98f00b204e9800998ecf8427e" x="852.816406"/>
<use xlink:href="#c_46f5d86430594d4affc2299f73adabe3" x="884.603516"/>
<use xlink:href="#c_3b515ad41f960e225ec85275856806ca" x="963.314453"/>
<use xlink:href="#c_0bce5afba2dc6b9024b26277c38ad8e8" x="1026.693359"/>
<use xlink:href="#c_3b515ad41f960e225ec85275856806ca" x="1088.216797"/>
<use xlink:href="#c_0bce5afba2dc6b9024b26277c38ad8e8" x="1151.595703"/>
<use xlink:href="#c_d41d8cd98f00b204e9800998ecf8427e" x="1213.119141"/>
<use xlink:href="#c_7b26b13f539f13a4c64eef23b6952d29" x="1244.906250"/>
<use xlink:href="#c_d41d8cd98f00b204e9800998ecf8427e" x="1280.990234"/>
<use xlink:href="#c_07e3f33241aff50afcba519606f2a979" x="1312.777344"/>
<use xlink:href="#c_6a63bda47b2f3da1cec6aadd80692cfe" x="1368.490234"/>
<use xlink:href="#c_fe791a90f5471e2ab20a5ed41a7fa451" x="1396.273438"/>
<use xlink:href="#c_0bce5afba2dc6b9024b26277c38ad8e8" x="1459.652344"/>
<use xlink:href="#c_d41d8cd98f00b204e9800998ecf8427e" x="1521.175781"/>
<use xlink:href="#c_42baa63129a918535c52adb20d687ea7" x="1552.962891"/>
<use xlink:href="#c_42baa63129a918535c52adb20d687ea7" x="1616.585938"/>
</g>
</g>
<g id="line2d41">
<path style="fill: none; stroke: #ff0000; stroke-width: 1.000000; stroke-linejoin: round; stroke-linecap: square;  opacity: 1.000000"  d="M159.102187 103.254375L179.262187 103.254375"/>
</g>
<g id="line2d42">
</g>
<g id="text21">
<defs>
<path id="c_5e9f44da4350eed47d2641510279ca20" d="M9.812500 -72.906250l9.859375 0.000000l0.000000 29.890625l35.843750 0.000000l0.000000 -29.890625l9.859375 0.000000l0.000000 72.906250l-9.859375 0.000000l0.000000 -34.718750l-35.843750 0.000000l0.000000 34.718750l-9.859375 0.000000z"/>
<path id="c_f15a64fcd463ef4629c48bab42cde24c" d="M18.109375 -8.203125l0.000000 29.000000l-9.031250 0.000000l0.000000 -75.484375l9.031250 0.000000l0.000000 8.296875q2.843750 -4.875000 7.156250 -7.234375q4.328125 -2.375000 10.328125 -2.375000q9.968750 0.000000 16.187500 7.906250q6.234375 7.906250 6.234375 20.796875q0.000000 12.890625 -6.234375 20.812500q-6.218750 7.906250 -16.187500 7.906250q-6.000000 0.000000 -10.328125 -2.375000q-4.312500 -2.375000 -7.156250 -7.250000M48.687500 -27.296875q0.000000 -9.906250 -4.078125 -15.546875q-4.078125 -5.640625 -11.203125 -5.640625q-7.140625 0.000000 -11.218750 5.640625q-4.078125 5.640625 -4.078125 15.546875q0.000000 9.906250 4.078125 15.546875q4.078125 5.640625 11.218750 5.640625q7.125000 0.000000 11.203125 -5.640625q4.078125 -5.640625 4.078125 -15.546875"/>
<path id="c_a66ecc39892414b9ca9362e0fffdc75b" d="M14.796875 -27.296875q0.000000 9.906250 4.078125 15.546875q4.078125 5.640625 11.203125 5.640625q7.125000 0.000000 11.218750 -5.640625q4.109375 -5.640625 4.109375 -15.546875q0.000000 -9.906250 -4.109375 -15.546875q-4.093750 -5.640625 -11.218750 -5.640625q-7.125000 0.000000 -11.203125 5.640625q-4.078125 5.640625 -4.078125 15.546875M45.406250 -8.203125q-2.828125 4.875000 -7.156250 7.250000q-4.312500 2.375000 -10.375000 2.375000q-9.906250 0.000000 -16.140625 -7.906250q-6.218750 -7.921875 -6.218750 -20.812500q0.000000 -12.890625 6.218750 -20.796875q6.234375 -7.906250 16.140625 -7.906250q6.062500 0.000000 10.375000 2.375000q4.328125 2.359375 7.156250 7.234375l0.000000 -8.296875l8.984375 0.000000l0.000000 75.484375l-8.984375 0.000000z"/>
</defs>
<g style="fill: #000000; opacity: 1.000000" transform="translate(195.102187,108.294375)scale(0.144000)">
<use xlink:href="#c_5e9f44da4350eed47d2641510279ca20"/>
<use xlink:href="#c_0bce5afba2dc6b9024b26277c38ad8e8" x="75.195312"/>
<use xlink:href="#c_01d93a582460e35a7945ca50d148ffeb" x="136.718750"/>
<use xlink:href="#c_f15a64fcd463ef4629c48bab42cde24c" x="197.998047"/>
<use xlink:href="#c_a66ecc39892414b9ca9362e0fffdc75b" x="261.474609"/>
<use xlink:href="#c_d41d8cd98f00b204e9800998ecf8427e" x="324.951172"/>
<use xlink:href="#c_7b26b13f539f13a4c64eef23b6952d29" x="356.738281"/>
<use xlink:href="#c_d41d8cd98f00b204e9800998ecf8427e" x="392.822266"/>
<use xlink:href="#c_07e3f33241aff50afcba519606f2a979" x="424.609375"/>
<use xlink:href="#c_6a63bda47b2f3da1cec6aadd80692cfe" x="480.322266"/>
<use xlink:href="#c_fe791a90f5471e2ab20a5ed41a7fa451" x="508.105469"/>
<use xlink:href="#c_0bce5afba2dc6b9024b26277c38ad8e8" x="571.484375"/>
<use xlink:href="#c_d41d8cd98f00b204e9800998ecf8427e" x="633.007812"/>
<use xlink:href="#c_42baa63129a918535c52adb20d687ea7" x="664.794922"/>
<use xlink:href="#c_42baa63129a918535c52adb20d687ea7" x="728.417969"/>
</g>
</g>
<g id="line2d43">
<path style="fill: none; stroke: #00bfbf; stroke-width: 1.000000; stroke-linejoin: round; stroke-linecap: square;  opacity: 1.000000"  d="M159.102187 124.001250L179.262187 124.001250"/>
</g>
<g id="line2d44">
</g>
<g id="text22">
<g style="fill: #000000; opacity: 1.000000" transform="translate(195.102187,129.041250)scale(0.144000)">
<use xlink:href="#c_5e9f44da4350eed47d2641510279ca20"/>
<use xlink:href="#c_0bce5afba2dc6b9024b26277c38ad8e8" x="75.195312"/>
<use xlink:href="#c_01d93a582460e35a7945ca50d148ffeb" x="136.718750"/>
<use xlink:href="#c_f15a64fcd463ef4629c48bab42cde24c" x="197.998047"/>
<use xlink:href="#c_a66ecc39892414b9ca9362e0fffdc75b" x="261.474609"/>
<use xlink:href="#c_d41d8cd98f00b204e9800998ecf8427e" x="324.951172"/>
<use xlink:href="#c_7b26b13f539f13a4c64eef23b6952d29" x="356.738281"/>
<use xlink:href="#c_d41d8cd98f00b204e9800998ecf8427e" x="392.822266"/>
<use xlink:href="#c_07e3f33241aff50afcba519606f2a979" x="424.609375"/>
<use xlink:href="#c_6a63bda47b2f3da1cec6aadd80692cfe" x="480.322266"/>
<use xlink:href="#c_fe791a90f5471e2ab20a5ed41a7fa451" x="508.105469"/>
<use xlink:href="#c_0bce5afba2dc6b9024b26277c38ad8e8" x="571.484375"/>
<use xlink:href="#c_d41d8cd98f00b204e9800998ecf8427e" x="633.007812"/>
<use xlink:href="#c_42baa63129a918535c52adb20d687ea7" x="664.794922"/>
<use xlink:href="#c_a0416418d96557a09b8c1332d34883ba" x="728.417969"/>
</g>
</g>
</g>
</g>
</g>
</svg>
